<svg xmlns="http://www.w3.org/2000/svg" width="600" height="330" viewBox="0 0 600 330"><rect width="600" height="330" fill="#111827"/><text x="30" y="38" fill="white" font-family="sans-serif" font-size="22" font-weight="700">Before — terminal outline shifted</text><text x="30" y="65" fill="#9ca3af" font-family="sans-serif" font-size="14">Vertical corner tap · Tap Clearance −0.10 mm</text><g transform="translate(120 25)"><polygon points="90,30 150,30 150,100 90,100 90,220 20,220 20,30" fill="none" stroke="#6b7280" stroke-width="3" stroke-dasharray="7 6"/><polygon points="100,40 160,40 160,110 90,110 90,220 20,220 20,30" fill="#1e3a5f" fill-opacity=".65" stroke="#60a5fa" stroke-width="4"/><g fill="none" stroke="#ef4444" stroke-width="4"><path d="M 105 33 L 137 33"/><path d="M130 28 L140 33 L130 38"/></g><circle cx="90" cy="30" r="6" fill="#fbbf24"/></g><g font-family="sans-serif" font-size="14"><rect x="35" y="280" width="18" height="4" fill="#60a5fa"/><text x="62" y="287" fill="#d1d5db">Tap Clearance output</text><rect x="260" y="280" width="18" height="4" fill="#6b7280"/><text x="287" y="287" fill="#d1d5db">Original outline</text><circle cx="455" cy="282" r="5" fill="#fbbf24"/><text x="468" y="287" fill="#d1d5db">corner</text></g></svg>