<svg xmlns="http://www.w3.org/2000/svg" viewBox="0 0 160 160">
  <!-- Expected: 2 panels, 1 curved/circular hole, no repair -->
  <path d="M 25 20 C 15 20 10 30 10 40 L 10 120 C 10 135 25 150 40 150 L 120 150 C 140 150 150 135 150 120 L 150 40 C 150 25 135 10 120 10 L 40 10 C 30 10 25 15 25 20 Z"/>
  <path d="M 100 80 L 94.142 94.142 L 80 100 L 65.858 94.142 L 60 80 L 65.858 65.858 L 80 60 L 94.142 65.858 Z"/>
  <path d="M 75 72 C 72 72 70 74 70 77 L 70 83 C 70 86 72 88 75 88 L 85 88 C 88 88 90 86 90 83 L 90 77 C 90 74 88 72 85 72 Z"/>
</svg>
