<svg xmlns="http://www.w3.org/2000/svg" width="1200" height="720" viewBox="0 0 1200 720">
  <rect width="1200" height="720" fill="#eef2f7"/>
  <rect x="32" y="32" width="310" height="656" rx="24" fill="#fff" stroke="#e2e8f0"/>
  <text x="56" y="72" font-family="Arial" font-size="24" font-weight="700" fill="#0f172a">Connection manager</text>
  <rect x="56" y="136" width="262" height="86" rx="18" fill="#f8fafc" stroke="#e2e8f0"/>
  <text x="72" y="166" font-family="Arial" font-size="16" font-weight="700">S = Slot connections</text>
  <rect x="72" y="184" width="132" height="32" rx="10" fill="#5eead4"/><text x="82" y="206" font-family="Arial" font-size="12" font-weight="700">Start S Group 2</text>
  <rect x="212" y="184" width="100" height="32" rx="10" fill="#5eead4" opacity=".55"/><text x="220" y="206" font-family="Arial" font-size="12" font-weight="700">Finish S Group 2</text>
  <rect x="56" y="238" width="262" height="48" rx="12" fill="#ecfeff" stroke="#2dd4bf"/>
  <text x="72" y="268" font-family="Arial" font-size="16" font-weight="700" fill="#0f172a">S Group 1 (3)</text><text x="270" y="268" font-family="Arial" font-size="12" font-weight="700" fill="#64748b">Show</text>
  <rect x="56" y="304" width="262" height="48" rx="12" fill="#fff" stroke="#e2e8f0"/>
  <text x="72" y="334" font-family="Arial" font-size="16" font-weight="700" fill="#0f172a">S Group 2 (3)</text><text x="272" y="334" font-family="Arial" font-size="12" font-weight="700" fill="#64748b">Hide</text>
  <g font-family="Arial" font-size="16" font-weight="700" fill="#0f766e">
    <rect x="72" y="360" width="246" height="40" rx="10" fill="#fff" stroke="#e2e8f0"/><text x="88" y="386">S4</text>
    <rect x="72" y="408" width="246" height="40" rx="10" fill="#fff" stroke="#e2e8f0"/><text x="88" y="434">S5</text>
    <rect x="72" y="456" width="246" height="40" rx="10" fill="#fff" stroke="#e2e8f0"/><text x="88" y="482">S6</text>
  </g>
  <rect x="374" y="32" width="794" height="656" rx="24" fill="#fff" stroke="#e2e8f0"/>
  <text x="398" y="76" font-family="Arial" font-size="24" font-weight="700">Drawing</text>
  <rect x="398" y="120" width="722" height="530" rx="18" fill="#f8fafc"/>
  <rect x="422" y="144" width="42" height="42" rx="12" fill="#fff" stroke="#cbd5e1"/><text x="436" y="173" font-family="Arial" font-size="24">↶</text>
  <rect x="472" y="144" width="42" height="42" rx="12" fill="#fff" stroke="#cbd5e1"/><text x="486" y="173" font-family="Arial" font-size="24">↷</text>
  <text x="530" y="170" font-family="Arial" font-size="14" fill="#0f172a">Thickness</text><rect x="596" y="144" width="54" height="42" rx="12" fill="#fff" stroke="#cbd5e1"/><text x="618" y="170" font-family="Arial" font-size="16">3</text>
  <text x="664" y="170" font-family="Arial" font-size="14" fill="#0f172a">Tab</text><rect x="694" y="144" width="54" height="42" rx="12" fill="#fff" stroke="#cbd5e1"/><text x="716" y="170" font-family="Arial" font-size="16">9</text>
  <text x="762" y="170" font-family="Arial" font-size="14" fill="#0f172a">Offset</text><rect x="810" y="144" width="54" height="42" rx="12" fill="#fff" stroke="#cbd5e1"/><text x="826" y="170" font-family="Arial" font-size="16">50</text>
</svg>
