<svg xmlns="http://www.w3.org/2000/svg" width="1200" height="720" viewBox="0 0 1200 720">
  <rect width="1200" height="720" fill="#eef2f7"/>
  <rect x="32" y="32" width="310" height="656" rx="24" fill="#fff" stroke="#e2e8f0"/>
  <text x="56" y="72" font-family="Arial" font-size="24" font-weight="700" fill="#0f172a">Connection manager</text>
  <rect x="56" y="136" width="262" height="86" rx="18" fill="#f8fafc" stroke="#e2e8f0"/>
  <text x="72" y="166" font-family="Arial" font-size="16" font-weight="700">S = Slot connections</text>
  <rect x="72" y="184" width="116" height="32" rx="10" fill="#5eead4"/><text x="82" y="206" font-family="Arial" font-size="12" font-weight="700">Start S Group</text>
  <rect x="196" y="184" width="116" height="32" rx="10" fill="#5eead4" opacity=".55"/><text x="204" y="206" font-family="Arial" font-size="12" font-weight="700">Finish S Group</text>
  <g font-family="Arial" font-size="18" font-weight="700" fill="#0f766e">
    <rect x="56" y="238" width="262" height="48" rx="12" fill="#fff" stroke="#e2e8f0"/><text x="72" y="268">S1</text>
    <rect x="56" y="294" width="262" height="48" rx="12" fill="#fff" stroke="#e2e8f0"/><text x="72" y="324">S2</text>
    <rect x="56" y="350" width="262" height="48" rx="12" fill="#fff" stroke="#e2e8f0"/><text x="72" y="380">S3</text>
    <rect x="56" y="406" width="262" height="48" rx="12" fill="#fff" stroke="#e2e8f0"/><text x="72" y="436">S4</text>
    <rect x="56" y="462" width="262" height="48" rx="12" fill="#fff" stroke="#e2e8f0"/><text x="72" y="492">S5</text>
    <rect x="56" y="518" width="262" height="48" rx="12" fill="#fff" stroke="#e2e8f0"/><text x="72" y="548">S6</text>
  </g>
  <rect x="374" y="32" width="794" height="656" rx="24" fill="#fff" stroke="#e2e8f0"/>
  <text x="398" y="76" font-family="Arial" font-size="24" font-weight="700">Drawing</text>
  <rect x="398" y="120" width="722" height="530" rx="18" fill="#f8fafc"/>
  <rect x="422" y="144" width="42" height="42" rx="12" fill="#fff" stroke="#cbd5e1"/><text x="436" y="173" font-family="Arial" font-size="24">↶</text>
  <rect x="472" y="144" width="42" height="42" rx="12" fill="#fff" stroke="#cbd5e1"/><text x="486" y="173" font-family="Arial" font-size="24">↷</text>
  <rect x="522" y="144" width="420" height="110" rx="14" fill="#fff" stroke="#cbd5e1"/>
  <text x="540" y="174" font-family="Arial" font-size="13" font-weight="700" fill="#475569">Material thickness</text>
  <rect x="540" y="184" width="110" height="36" rx="10" fill="#fff" stroke="#cbd5e1"/><text x="580" y="208" font-family="Arial" font-size="16">3</text>
  <text x="670" y="174" font-family="Arial" font-size="13" font-weight="700" fill="#475569">Tab size</text>
  <rect x="670" y="184" width="110" height="36" rx="10" fill="#fff" stroke="#cbd5e1"/><text x="712" y="208" font-family="Arial" font-size="16">9</text>
  <text x="800" y="174" font-family="Arial" font-size="13" font-weight="700" fill="#475569">Slot offset</text>
  <rect x="800" y="184" width="110" height="36" rx="10" fill="#fff" stroke="#cbd5e1"/><text x="842" y="208" font-family="Arial" font-size="16">50</text>
</svg>
